<?xml version="1.0" encoding="utf-8"?>
<!-- Generator: Adobe Illustrator 26.0.1, SVG Export Plug-In . SVG Version: 6.00 Build 0)  -->
<svg version="1.1" id="Calque_1" xmlns="http://www.w3.org/2000/svg" xmlns:xlink="http://www.w3.org/1999/xlink" x="0px" y="0px"
	 viewBox="0 0 72 70" style="enable-background:new 0 0 72 70;" xml:space="preserve">
<style type="text/css">
	.st0{fill:#F2F2F2;}
	.st1{fill:#FFB324;}
	.st2{fill:#5FC2BA;}
</style>
<g>
	<g>
		<g>
			<path class="st0" d="M66.9,29.9h-33v-26H0v26v0.7v4.2v0.7l0,0h33.9l0,0h27.8v16.3H6v-8.9v-0.7H5.3H0.8H0v0.7v13.8v0.7h0.7h66.2
				h0.7v-0.7V30.6v-0.7H66.9L66.9,29.9z M7.5,10.8h19v19.1h-19V10.8z"/>
		</g>
		<g>
			<polygon class="st0" points="33.9,61.2 38.5,65.6 33.9,69.9 29.2,65.6 			"/>
		</g>
		<polygon class="st1" points="38.9,64.3 35.3,60.9 35.2,60.8 35.1,60.9 34.9,61.1 34.8,61.1 34.9,61.2 38.5,64.6 38.6,64.7 
			38.7,64.6 38.9,64.4 39,64.3 		"/>
		<g>
			<polygon class="st2" points="72.1,54.2 70.2,54.2 70.2,27.7 36.4,27.7 36.4,1.7 3.5,1.7 3.5,-0.1 38.3,-0.1 38.3,25.9 72.1,25.9 
							"/>
		</g>
	</g>
</g>
</svg>
