<?xml version="1.0" encoding="utf-8"?>
<!-- Generator: Adobe Illustrator 26.0.1, SVG Export Plug-In . SVG Version: 6.00 Build 0)  -->
<svg version="1.1" id="Layer_1" xmlns="http://www.w3.org/2000/svg" xmlns:xlink="http://www.w3.org/1999/xlink" x="0px" y="0px"
	 viewBox="0 0 231.6 231.6" style="enable-background:new 0 0 231.6 231.6;" xml:space="preserve">
<style type="text/css">
	.st0{fill:#FF9A00;}
</style>
<g id="XMLID_449_">
	<g>
		<path id="XMLID_00000049942370404522303330000017281704571112247718_" class="st0" d="M37,182.6h29.3c0.7,0,1.4-0.6,1.7-1.3
			l8.6-30.8h33.1l9.3,30.8c0.2,0.7,1,1.3,1.7,1.3h30.4l0,0c1,0,1.7-0.7,1.7-1.7c0-0.2-0.1-0.6-0.1-0.7L113.9,55.5
			c-0.2-0.7-1-1.3-1.7-1.3h-37c-0.7,0-1.4,0.6-1.7,1.3L35.3,180.3c-0.2,0.6-0.1,1,0.3,1.6C35.9,182.2,36.5,182.6,37,182.6z
			 M104.5,126h-23l6.7-24.3c1.3-4.3,2.4-9.6,3.5-14.5c0.2-1.2,0.6-2.3,0.7-3.4c1.4,6,3.2,12.5,4.7,17.9L104.5,126z"/>
		<path id="XMLID_00000060009703982456647230000002769071320575724463_" class="st0" d="M165.5,88.5c-1,0-1.7,0.7-1.7,1.7v90.7
			c0,1,0.7,1.7,1.7,1.7h28.1c1,0,1.7-0.7,1.7-1.7V90.3c0-1-0.7-1.7-1.7-1.7h-28.1V88.5z"/>
		<path id="XMLID_00000019640907751805258950000014934540002041649826_" class="st0" d="M179.4,80.9c9.8,0,16.9-6.6,16.9-15.8
			c-0.2-9.4-7-15.9-16.8-15.9c-5,0-9.3,1.7-12.3,4.7c-2.9,2.9-4.3,6.9-4.2,11.2c-0.1,4.2,1.4,8.2,4.2,11
			C170.3,79.2,174.6,80.9,179.4,80.9z"/>
	</g>
</g>
</svg>
