<?xml version="1.0" encoding="utf-8"?>
<!-- Generator: Adobe Illustrator 26.0.1, SVG Export Plug-In . SVG Version: 6.00 Build 0)  -->
<svg version="1.1" id="Layer_1" xmlns="http://www.w3.org/2000/svg" xmlns:xlink="http://www.w3.org/1999/xlink" x="0px" y="0px"
	 viewBox="0 0 243.9 243.9" style="enable-background:new 0 0 243.9 243.9;" xml:space="preserve">
<style type="text/css">
	.st0{fill:#31A8FF;}
</style>
<g id="XMLID_309_">
	<g>
		<path id="XMLID_00000152257154268585509180000009140211311286632589_" class="st0" d="M60.5,193.2v-49.2c2.6,0.2,5.8,0.4,9.1,0.4
			c20.7,0,37.2-5.4,48-15.6c8.9-8.5,13.8-21.1,13.8-35.5c0-14.2-5.9-26.8-16.1-34.8c-10-8-24.9-11.9-45.1-11.9
			c-17.7,0-32.6,1.1-44.4,3c-0.9,0.1-1.7,0.9-1.7,2v141.9c0,1.1,0.9,2,2,2h32.2C59.5,195.3,60.5,194.3,60.5,193.2z M60.5,115V75.8
			c2-0.4,5.8-0.8,11.4-0.8c14.8,0,23.3,7,23.3,19c0,13.5-9.7,21.5-26,21.5C65.4,115.5,62.6,115.4,60.5,115z"/>
		<path id="XMLID_00000076583108933061013280000016182916047103081129_" class="st0" d="M190,127.5c-13.2-4.6-15.5-7-15.5-10
			c0-5.8,6.5-6.5,10.5-6.5c8.1,0,16.8,3.1,21.7,5.8c0.6,0.2,1.2,0.4,1.8,0.1c0.6-0.2,0.9-0.7,1.2-1.3l5.8-22.4
			c0.2-0.9-0.2-1.9-1.1-2.2c-5.9-3-17.1-6.1-30.3-6.1c-26.2,0-44.4,14.8-44.4,36.1c-0.1,10.3,5.1,24.4,31,33.3
			c12.5,4.1,14,6.4,14,10c0,1.7,0,6.7-11.8,6.7c-8.9,0-20.9-3.9-26.9-7.6c-0.6-0.4-1.2-0.4-1.8-0.1s-1.1,0.7-1.2,1.4l-5.8,23.3
			c-0.2,0.8,0.2,1.8,0.9,2.2c8.7,4.7,21.5,7.6,34.6,7.6c29.2,0,47.3-13.6,47.3-35.8C219.3,145.1,210.1,134.5,190,127.5z"/>
	</g>
</g>
</svg>
