<?xml version="1.0" encoding="utf-8"?>
<!-- Generator: Adobe Illustrator 28.4.1, SVG Export Plug-In . SVG Version: 6.00 Build 0)  -->
<svg version="1.1" id="Layer_1" xmlns="http://www.w3.org/2000/svg" xmlns:xlink="http://www.w3.org/1999/xlink" x="0px" y="0px"
	 viewBox="0 0 2954.2 1000" style="enable-background:new 0 0 2954.2 1000;" xml:space="preserve">
<style type="text/css">
	.st0{fill:#E6FF00;}
	.st1{fill:#FFFFFF;}
</style>
<g>
	<g>
		<path class="st0" d="M819.5,782.5h-16.7V511.6c0-15.5-11.9-28.1-26.6-28.1H485.8V263.2c0-15.5-11.9-28.1-26.6-28.1H151.6v-17.6
			h350.8v248.4h317.1V782.5z"/>
	</g>
	<g>
		<path class="st1" d="M1136.4,776.3h-63.9V596.5l-72.6,132.2h-7.3l-72.6-132.2v179.8H856V465.9h63.9l75.5,138.3l75.5-138.3h63.9
			v310.4H1136.4z"/>
		<path class="st1" d="M1389.1,555v221.3h-59.6v-21.5c-13.1,16.9-33.4,27.7-59.6,27.7c-52.3,0-95.9-50.7-95.9-116.8
			s43.6-116.8,95.9-116.8c27.6,0,46.5,10.8,59.6,27.7V555H1389.1z M1328.1,665.7c0-33.8-20.3-53.8-47.9-53.8
			c-27.6,0-47.9,21.5-47.9,53.8c0,33.8,20.3,53.8,47.9,53.8C1309.2,719.5,1328.1,698,1328.1,665.7z"/>
		<path class="st1" d="M1625.9,639.6v136.8h-59.6v-126c0-27.7-16-40-34.9-40c-21.8,0-37.8,13.8-37.8,46.1v121.4h-59.6V465.9h59.6
			V575c10.2-16.9,30.5-27.7,56.7-27.7C1591,548.9,1625.9,579.6,1625.9,639.6z"/>
		<path class="st1" d="M1968.7,639.6v136.8h-59.6V645.7c0-21.5-10.2-36.9-29.1-36.9c-20.3,0-32,15.4-32,41.5v124.5h-59.6V644.2
			c0-21.5-10.2-36.9-29.1-36.9c-20.3,0-32,15.4-32,41.5v124.5H1668V555h59.6v20c8.7-15.4,27.6-26.1,53.7-26.1
			c23.2,0,40.7,10.8,52.3,29.2c11.6-18.4,29.1-29.2,58.1-29.2C1938.2,548.9,1968.7,584.2,1968.7,639.6z"/>
		<path class="st1" d="M1999.2,665.7c0-66.1,47.9-116.8,106-116.8c59.6,0,106,50.7,106,116.8s-47.9,116.8-106,116.8
			C2047.2,782.5,1999.2,731.8,1999.2,665.7z M2151.8,665.7c0-30.7-20.3-52.2-46.5-52.2s-46.5,21.5-46.5,52.2s20.3,52.2,46.5,52.2
			C2131.4,717.9,2151.8,696.4,2151.8,665.7z"/>
		<path class="st1" d="M2436.5,555v221.3h-59.6v-21.5c-10.2,16.9-30.5,27.7-56.7,27.7c-40.7,0-75.5-32.3-75.5-92.2V555h59.6v126
			c0,27.7,16,40,34.9,40c21.8,0,37.8-13.8,37.8-46.1V555H2436.5z"/>
		<path class="st1" d="M2686.4,465.9v310.4h-59.6v-21.5c-13.1,16.9-33.4,27.7-59.6,27.7c-52.3,0-95.9-50.7-95.9-116.8
			s43.6-116.8,95.9-116.8c27.6,0,46.5,10.8,59.6,27.7V465.9H2686.4z M2625.4,665.7c0-33.8-20.3-53.8-47.9-53.8
			c-27.6,0-47.9,21.5-47.9,53.8c0,33.8,20.3,53.8,47.9,53.8C2606.5,719.5,2625.4,698,2625.4,665.7z"/>
		<path class="st0" d="M2727,741c0-23.1,17.4-41.5,37.8-41.5s37.8,18.4,37.8,41.5c0,23.1-17.4,41.5-37.8,41.5S2727,764,2727,741z"/>
	</g>
	<path class="st1" d="M469.3,500V278.8c0-14.2-11.5-25.6-25.6-25.6h-292v313.9h583.9v165.2h-534V617.2h-49.9v165.3h634.1V528.3
		c0-15.6-12.7-28.3-28.3-28.3H469.3z M418.5,517H201.8V332.7h216.8V517z"/>
	
		<rect x="449.1" y="814.7" transform="matrix(0.7071 0.7071 -0.7071 0.7071 744.0833 -94.0548)" class="st1" width="72.9" height="72.9"/>
</g>
</svg>
