<?xml version="1.0" encoding="utf-8"?>
<!-- Generator: Adobe Illustrator 28.4.1, SVG Export Plug-In . SVG Version: 6.00 Build 0)  -->
<svg version="1.1" id="Layer_1" xmlns="http://www.w3.org/2000/svg" xmlns:xlink="http://www.w3.org/1999/xlink" x="0px" y="0px"
	 viewBox="0 0 134 23" style="enable-background:new 0 0 134 23;" xml:space="preserve">
<style type="text/css">
	.st0{fill:#FFFFFF;}
	.st1{fill:#E6FF00;}
</style>
<g>
	<path class="st0" d="M19.3,22.6h-4.4V10.9l-5,8.6H9.4l-5-8.6v11.7H0V2.4h4.4l5.2,9l5.2-9h4.4L19.3,22.6L19.3,22.6z"/>
	<path class="st0" d="M36.7,8.2v14.4h-4.1v-1.4c-0.9,1.1-2.3,1.8-4.1,1.8c-3.6,0-6.6-3.3-6.6-7.6s3-7.6,6.6-7.6
		c1.9,0,3.2,0.7,4.1,1.8V8.2H36.7z M32.5,15.4c0-2.2-1.4-3.5-3.3-3.5s-3.3,1.4-3.3,3.5c0,2.2,1.4,3.5,3.3,3.5
		C31.2,18.9,32.5,17.5,32.5,15.4z"/>
	<path class="st0" d="M53,13.7v8.9h-4.1v-8.2c0-1.8-1.1-2.6-2.4-2.6c-1.5,0-2.6,0.9-2.6,3v7.9h-4.1V2.4h4.1v7.1
		c0.7-1.1,2.1-1.8,3.9-1.8C50.6,7.8,53,9.8,53,13.7z"/>
	<path class="st0" d="M76.6,13.7v8.9h-4.1v-8.5c0-1.4-0.7-2.4-2-2.4c-1.4,0-2.2,1-2.2,2.7v8.1h-4.1V14c0-1.4-0.7-2.4-2-2.4
		c-1.4,0-2.2,1-2.2,2.7v8.1h-4.1V8.2H60v1.3c0.6-1,1.9-1.7,3.7-1.7c1.6,0,2.8,0.7,3.6,1.9c0.8-1.2,2-1.9,4-1.9
		C74.5,7.8,76.6,10.1,76.6,13.7z"/>
	<path class="st0" d="M78.7,15.4c0-4.3,3.3-7.6,7.3-7.6c4.1,0,7.3,3.3,7.3,7.6S90,23,86,23S78.7,19.7,78.7,15.4z M89.2,15.4
		c0-2-1.4-3.4-3.2-3.4c-1.8,0-3.2,1.4-3.2,3.4s1.4,3.4,3.2,3.4C87.8,18.8,89.2,17.4,89.2,15.4z"/>
	<path class="st0" d="M108.8,8.2v14.4h-4.1v-1.4c-0.7,1.1-2.1,1.8-3.9,1.8c-2.8,0-5.2-2.1-5.2-6V8.2h4.1v8.2c0,1.8,1.1,2.6,2.4,2.6
		c1.5,0,2.6-0.9,2.6-3V8.2H108.8z"/>
	<path class="st0" d="M126,2.4v20.2h-4.1v-1.4c-0.9,1.1-2.3,1.8-4.1,1.8c-3.6,0-6.6-3.3-6.6-7.6s3-7.6,6.6-7.6
		c1.9,0,3.2,0.7,4.1,1.8V2.4H126z M121.8,15.4c0-2.2-1.4-3.5-3.3-3.5s-3.3,1.4-3.3,3.5c0,2.2,1.4,3.5,3.3,3.5
		C120.5,18.9,121.8,17.5,121.8,15.4z"/>
	<path class="st1" d="M128.8,20.3c0-1.5,1.2-2.7,2.6-2.7s2.6,1.2,2.6,2.7s-1.2,2.7-2.6,2.7S128.8,21.8,128.8,20.3z"/>
</g>
</svg>
